<svg width="54" height="53" viewBox="0 0 54 53" fill="none" xmlns="http://www.w3.org/2000/svg">
<path d="M27.0693 0.333314C14.0212 0.331638 2.89817 9.79461 0.809066 22.6745C-1.28004 35.5543 6.28159 48.0479 18.6613 52.1706C19.9947 52.4106 20.472 51.592 20.472 50.888C20.472 50.256 20.4507 48.5813 20.4427 46.3546C13.0427 47.9546 11.48 42.7867 11.48 42.7867C10.9928 41.1785 9.94554 39.7982 8.528 38.896C6.128 37.2453 8.712 37.2826 8.712 37.2826C10.4205 37.5169 11.9241 38.5292 12.784 40.024C13.5118 41.3473 14.738 42.3252 16.1901 42.7403C17.6423 43.1554 19.2 42.9734 20.5173 42.2347C20.6411 40.8853 21.2414 39.6242 22.2107 38.6773C16.3067 38.008 10.0987 35.7253 10.0987 25.5307C10.0659 22.8938 11.0451 20.3448 12.8347 18.408C12.0249 16.1128 12.1203 13.5953 13.1013 11.368C13.1013 11.368 15.3333 10.6506 20.4133 14.0906C24.7703 12.896 29.3684 12.896 33.7253 14.0906C38.808 10.648 41.0373 11.368 41.0373 11.368C42.0229 13.5943 42.1184 16.1135 41.304 18.408C43.1001 20.3446 44.0785 22.9004 44.0347 25.5413C44.0347 35.7626 37.8213 38.008 31.896 38.6667C33.1742 39.9735 33.8297 41.7662 33.696 43.5893C33.696 47.1466 33.664 50.016 33.664 50.888C33.664 51.6 34.1387 52.4266 35.496 52.1653C47.8706 48.0356 55.4241 35.5413 53.3307 22.6648C51.2373 9.78839 40.1148 0.330329 27.0693 0.333314Z" fill="#4E5560"/>
</svg>
